<svg width="32" height="32" viewBox="0 0 32 32" fill="none" xmlns="http://www.w3.org/2000/svg">
<path d="M28.8438 2.767C28.7434 2.317 28.3647 2 27.9325 2H27.9269C22.9891 2.033 10.9816 2.916 6.13375 10.38C3.61562 14.258 3.39906 19.293 5.48969 25.345C5.50562 25.392 5.53844 25.424 5.56 25.467C4.81281 27.44 4.52312 28.753 4.51562 28.79C4.40687 29.33 4.73031 29.862 5.23656 29.978C5.30219 29.993 5.36781 30 5.43344 30C5.86562 30 6.25469 29.679 6.34937 29.21C6.36906 29.108 8.75781 18.837 17.2028 12.832C17.6341 12.526 17.7503 11.905 17.4625 11.445C17.1747 10.985 16.5934 10.86 16.1622 11.168C11.3734 14.573 8.42406 19.176 6.68969 22.824C5.44844 18.246 5.77375 14.447 7.67594 11.519C11.4194 5.755 20.2984 4.365 25.6581 4.071C24.505 5.872 23.245 9.174 23.245 15C23.245 18.12 22.4153 20.522 20.7803 22.14C18.1591 24.731 13.9009 24.974 10.7866 24.724C10.2691 24.679 9.82 25.095 9.78062 25.646C9.74125 26.196 10.1284 26.676 10.6441 26.718C11.2675 26.769 11.9331 26.8 12.625 26.8C15.7956 26.8 19.4941 26.137 22.0544 23.606C24.0887 21.595 25.12 18.7 25.12 15.001C25.12 5.902 28.3356 3.905 28.3516 3.896C28.7416 3.687 28.9459 3.219 28.8438 2.767Z" fill="white"/>
</svg>
